<mxfile host="Electron" modified="2023-04-17T05:23:03.227Z" agent="Mozilla/5.0 (Windows NT 10.0; Win64; x64) AppleWebKit/537.36 (KHTML, like Gecko) draw.io/21.1.2 Chrome/106.0.5249.199 Electron/21.4.3 Safari/537.36" etag="-MK_paQ5Ss_ZejVULC3c" version="21.1.2" type="device">
  <diagram name="Page-1" id="FpGTTovZxtUlriD37-4v">
    <mxGraphModel dx="1434" dy="884" grid="1" gridSize="10" guides="1" tooltips="1" connect="1" arrows="1" fold="1" page="1" pageScale="1" pageWidth="1169" pageHeight="827" math="0" shadow="0">
      <root>
        <mxCell id="0" />
        <mxCell id="1" parent="0" />
        <mxCell id="hINAiE4th2RwcvXUCsx0-2" value="Controle de Livros" style="text;html=1;strokeColor=none;fillColor=none;align=center;verticalAlign=middle;whiteSpace=wrap;rounded=0;fontSize=24;" vertex="1" parent="1">
          <mxGeometry x="10" y="20" width="290" height="50" as="geometry" />
        </mxCell>
        <mxCell id="hINAiE4th2RwcvXUCsx0-4" value="View&lt;br&gt;Console App" style="whiteSpace=wrap;html=1;aspect=fixed;" vertex="1" parent="1">
          <mxGeometry x="200" y="80" width="120" height="120" as="geometry" />
        </mxCell>
        <mxCell id="hINAiE4th2RwcvXUCsx0-9" style="edgeStyle=orthogonalEdgeStyle;rounded=0;orthogonalLoop=1;jettySize=auto;html=1;exitX=1;exitY=0.5;exitDx=0;exitDy=0;entryX=0;entryY=0.5;entryDx=0;entryDy=0;" edge="1" parent="1" source="hINAiE4th2RwcvXUCsx0-5" target="hINAiE4th2RwcvXUCsx0-6">
          <mxGeometry relative="1" as="geometry">
            <Array as="points">
              <mxPoint x="650" y="140" />
              <mxPoint x="650" y="260" />
              <mxPoint x="700" y="260" />
              <mxPoint x="700" y="380" />
            </Array>
          </mxGeometry>
        </mxCell>
        <mxCell id="hINAiE4th2RwcvXUCsx0-10" style="edgeStyle=orthogonalEdgeStyle;rounded=0;orthogonalLoop=1;jettySize=auto;html=1;" edge="1" parent="1" source="hINAiE4th2RwcvXUCsx0-5" target="hINAiE4th2RwcvXUCsx0-4">
          <mxGeometry relative="1" as="geometry" />
        </mxCell>
        <mxCell id="hINAiE4th2RwcvXUCsx0-18" value="" style="edgeStyle=orthogonalEdgeStyle;rounded=0;orthogonalLoop=1;jettySize=auto;html=1;entryX=0.5;entryY=0;entryDx=0;entryDy=0;" edge="1" parent="1" source="hINAiE4th2RwcvXUCsx0-5" target="hINAiE4th2RwcvXUCsx0-20">
          <mxGeometry relative="1" as="geometry">
            <mxPoint x="540" y="620" as="targetPoint" />
          </mxGeometry>
        </mxCell>
        <mxCell id="hINAiE4th2RwcvXUCsx0-5" value="Model&lt;br&gt;Classes" style="whiteSpace=wrap;html=1;aspect=fixed;" vertex="1" parent="1">
          <mxGeometry x="430" y="80" width="120" height="120" as="geometry" />
        </mxCell>
        <mxCell id="hINAiE4th2RwcvXUCsx0-8" style="edgeStyle=orthogonalEdgeStyle;rounded=0;orthogonalLoop=1;jettySize=auto;html=1;entryX=0;entryY=0.5;entryDx=0;entryDy=0;entryPerimeter=0;" edge="1" parent="1" source="hINAiE4th2RwcvXUCsx0-6" target="hINAiE4th2RwcvXUCsx0-7">
          <mxGeometry relative="1" as="geometry" />
        </mxCell>
        <mxCell id="hINAiE4th2RwcvXUCsx0-22" style="edgeStyle=orthogonalEdgeStyle;rounded=0;orthogonalLoop=1;jettySize=auto;html=1;entryX=0.5;entryY=1;entryDx=0;entryDy=0;" edge="1" parent="1" source="hINAiE4th2RwcvXUCsx0-6" target="hINAiE4th2RwcvXUCsx0-21">
          <mxGeometry relative="1" as="geometry" />
        </mxCell>
        <mxCell id="hINAiE4th2RwcvXUCsx0-6" value="Controller&lt;br&gt;MÃ©todos" style="whiteSpace=wrap;html=1;aspect=fixed;" vertex="1" parent="1">
          <mxGeometry x="740" y="320" width="120" height="120" as="geometry" />
        </mxCell>
        <mxCell id="hINAiE4th2RwcvXUCsx0-7" value="MongoDB" style="shape=cylinder3;whiteSpace=wrap;html=1;boundedLbl=1;backgroundOutline=1;size=15;" vertex="1" parent="1">
          <mxGeometry x="980" y="400" width="80" height="100" as="geometry" />
        </mxCell>
        <mxCell id="hINAiE4th2RwcvXUCsx0-15" style="edgeStyle=orthogonalEdgeStyle;rounded=0;orthogonalLoop=1;jettySize=auto;html=1;" edge="1" parent="1" source="hINAiE4th2RwcvXUCsx0-12" target="hINAiE4th2RwcvXUCsx0-4">
          <mxGeometry relative="1" as="geometry" />
        </mxCell>
        <mxCell id="hINAiE4th2RwcvXUCsx0-12" value="Actor" style="shape=umlActor;verticalLabelPosition=bottom;verticalAlign=top;html=1;outlineConnect=0;" vertex="1" parent="1">
          <mxGeometry x="60" y="85" width="50" height="110" as="geometry" />
        </mxCell>
        <mxCell id="hINAiE4th2RwcvXUCsx0-20" value="&lt;h1&gt;Classes&lt;/h1&gt;&lt;p&gt;Book&lt;/p&gt;&lt;p&gt;Shelf&lt;/p&gt;&lt;p&gt;Connector&lt;/p&gt;&lt;p&gt;Author&lt;/p&gt;" style="text;html=1;strokeColor=default;fillColor=none;spacing=5;spacingTop=-20;whiteSpace=wrap;overflow=hidden;rounded=0;" vertex="1" parent="1">
          <mxGeometry x="395" y="240" width="190" height="150" as="geometry" />
        </mxCell>
        <mxCell id="hINAiE4th2RwcvXUCsx0-21" value="&lt;h1&gt;Metodos Book&lt;/h1&gt;&lt;p&gt;CreateBook&lt;/p&gt;&lt;p&gt;UpdateBook&lt;/p&gt;&lt;p&gt;SelectBook&lt;/p&gt;&lt;p&gt;&lt;span style=&quot;background-color: initial;&quot;&gt;DeleteBook&lt;/span&gt;&lt;br&gt;&lt;/p&gt;&lt;p&gt;SelectAuthors&lt;span style=&quot;background-color: initial;&quot;&gt;&lt;br&gt;&lt;/span&gt;&lt;/p&gt;" style="text;html=1;strokeColor=default;fillColor=none;spacing=5;spacingTop=-20;whiteSpace=wrap;overflow=hidden;rounded=0;" vertex="1" parent="1">
          <mxGeometry x="705" y="20" width="190" height="190" as="geometry" />
        </mxCell>
        <mxCell id="hINAiE4th2RwcvXUCsx0-25" style="edgeStyle=orthogonalEdgeStyle;rounded=0;orthogonalLoop=1;jettySize=auto;html=1;entryX=0;entryY=0.75;entryDx=0;entryDy=0;exitX=0.5;exitY=0;exitDx=0;exitDy=0;" edge="1" parent="1" source="hINAiE4th2RwcvXUCsx0-23" target="hINAiE4th2RwcvXUCsx0-6">
          <mxGeometry relative="1" as="geometry" />
        </mxCell>
        <mxCell id="hINAiE4th2RwcvXUCsx0-23" value="&lt;h1&gt;Metodos Shelf&lt;/h1&gt;&lt;p&gt;CreateShelf&lt;/p&gt;&lt;p&gt;UpdateShelf&lt;/p&gt;&lt;p&gt;SelectShelf&lt;/p&gt;&lt;p&gt;DeleteShelf&lt;/p&gt;&lt;p&gt;ListBooks&lt;/p&gt;" style="text;html=1;strokeColor=default;fillColor=none;spacing=5;spacingTop=-20;whiteSpace=wrap;overflow=hidden;rounded=0;" vertex="1" parent="1">
          <mxGeometry x="390" y="580" width="190" height="180" as="geometry" />
        </mxCell>
        <mxCell id="hINAiE4th2RwcvXUCsx0-26" style="edgeStyle=orthogonalEdgeStyle;rounded=0;orthogonalLoop=1;jettySize=auto;html=1;entryX=0.5;entryY=1;entryDx=0;entryDy=0;" edge="1" parent="1" source="hINAiE4th2RwcvXUCsx0-24" target="hINAiE4th2RwcvXUCsx0-6">
          <mxGeometry relative="1" as="geometry" />
        </mxCell>
        <mxCell id="hINAiE4th2RwcvXUCsx0-24" value="&lt;h1&gt;Metodos Author&lt;/h1&gt;&lt;p&gt;CreateAuthor&lt;/p&gt;&lt;p&gt;UpdateAuthor&lt;/p&gt;&lt;p&gt;SelectAuthor&lt;/p&gt;&lt;p&gt;DeleteBook&lt;/p&gt;" style="text;html=1;strokeColor=default;fillColor=none;spacing=5;spacingTop=-20;whiteSpace=wrap;overflow=hidden;rounded=0;" vertex="1" parent="1">
          <mxGeometry x="690" y="590" width="220" height="160" as="geometry" />
        </mxCell>
      </root>
    </mxGraphModel>
  </diagram>
</mxfile>
